<?xml version="1.0" standalone="no"?>
<!DOCTYPE svg PUBLIC "-//W3C//DTD SVG 20010904//EN"
 "http://www.w3.org/TR/2001/REC-SVG-20010904/DTD/svg10.dtd">
<svg version="1.0" xmlns="http://www.w3.org/2000/svg"
 width="3840.000000pt" height="3840.000000pt" viewBox="0 0 3840.000000 3840.000000"
 preserveAspectRatio="xMidYMid meet">
<metadata>
Created by potrace 1.14, written by Peter Selinger 2001-2017
</metadata>
<g transform="translate(0.000000,3840.000000) scale(0.100000,-0.100000)"
fill="#000000" stroke="none">
<path d="M18977 36214 c-1 -1 -128 -4 -282 -8 -154 -4 -309 -9 -345 -10 -273
-14 -330 -18 -370 -21 -25 -2 -90 -7 -145 -10 -55 -4 -118 -8 -140 -10 -22 -2
-71 -6 -110 -9 -71 -6 -126 -11 -225 -21 -30 -3 -77 -8 -105 -10 -27 -3 -63
-7 -80 -9 -16 -3 -57 -8 -90 -11 -33 -3 -74 -8 -92 -10 -17 -3 -73 -9 -125
-15 -51 -6 -104 -13 -118 -15 -14 -2 -45 -7 -70 -10 -25 -3 -72 -10 -105 -15
-33 -5 -78 -11 -100 -14 -80 -11 -181 -26 -205 -30 -14 -3 -108 -19 -210 -36
-202 -34 -190 -32 -305 -55 -44 -8 -96 -18 -115 -21 -19 -3 -53 -9 -75 -14
-22 -5 -56 -12 -75 -15 -19 -3 -51 -10 -70 -15 -19 -5 -53 -12 -75 -16 -22 -3
-43 -8 -46 -10 -3 -2 -21 -6 -40 -9 -56 -10 -295 -64 -424 -96 -66 -16 -129
-31 -140 -33 -22 -4 -451 -118 -530 -140 -408 -118 -1037 -317 -1120 -355 -11
-6 -31 -13 -45 -16 -41 -11 -589 -215 -645 -240 -16 -8 -102 -43 -190 -78
-153 -62 -335 -139 -420 -177 -22 -10 -98 -44 -170 -75 -71 -31 -150 -68 -175
-80 -25 -13 -101 -49 -170 -81 -123 -56 -598 -294 -775 -389 -215 -114 -585
-324 -813 -460 -158 -94 -611 -380 -647 -408 -5 -4 -73 -49 -150 -100 -255
-169 -617 -426 -845 -601 -58 -44 -150 -114 -205 -155 -55 -42 -102 -78 -105
-81 -3 -3 -88 -73 -190 -155 -102 -81 -214 -174 -250 -205 -36 -31 -110 -94
-165 -140 -55 -45 -104 -88 -110 -94 -5 -6 -44 -40 -85 -76 -41 -36 -84 -74
-96 -85 -11 -11 -40 -37 -65 -58 -296 -258 -957 -915 -1250 -1242 -24 -27 -53
-58 -65 -70 -11 -11 -56 -60 -100 -110 -43 -49 -83 -95 -89 -101 -38 -42 -127
-145 -151 -174 -16 -19 -31 -37 -34 -40 -38 -36 -446 -537 -574 -705 -25 -33
-49 -64 -54 -70 -137 -166 -561 -764 -804 -1135 -133 -203 -368 -577 -368
-586 0 -2 -16 -28 -35 -58 -19 -30 -35 -58 -35 -61 0 -4 -13 -25 -28 -48 -32
-48 -148 -249 -245 -427 -16 -30 -33 -59 -37 -65 -4 -5 -38 -68 -75 -140 -37
-71 -81 -153 -97 -182 -30 -56 -281 -555 -283 -563 -1 -5 -13 -31 -105 -225
-73 -154 -265 -595 -340 -780 -29 -71 -59 -143 -66 -160 -116 -270 -482 -1325
-538 -1550 -1 -5 -10 -37 -20 -70 -10 -33 -19 -64 -21 -70 -1 -5 -5 -17 -8
-25 -6 -15 -96 -340 -102 -370 -2 -8 -13 -51 -25 -95 -12 -44 -26 -98 -31
-120 -52 -212 -71 -293 -74 -308 -2 -10 -7 -27 -10 -37 -6 -20 -13 -50 -21
-90 -2 -14 -13 -63 -24 -110 -10 -47 -21 -96 -24 -110 -2 -14 -9 -45 -15 -70
-10 -46 -17 -78 -26 -127 -3 -16 -14 -71 -25 -123 -10 -52 -21 -108 -24 -125
-2 -16 -9 -55 -16 -85 -9 -46 -70 -406 -86 -505 -2 -16 -6 -41 -9 -55 -2 -14
-7 -45 -10 -70 -3 -25 -8 -56 -10 -70 -2 -14 -7 -45 -10 -70 -3 -25 -8 -56
-10 -70 -2 -14 -7 -47 -10 -75 -3 -27 -8 -57 -10 -65 -2 -8 -6 -46 -10 -83 -3
-37 -8 -76 -10 -85 -1 -9 -6 -51 -10 -92 -4 -41 -8 -82 -10 -90 -1 -8 -6 -44
-9 -80 -4 -36 -9 -81 -11 -100 -5 -43 -13 -133 -20 -220 -3 -36 -7 -85 -10
-110 -8 -82 -15 -174 -20 -260 -2 -47 -7 -125 -10 -175 -12 -191 -14 -233 -22
-423 -9 -249 -10 -1121 0 -1352 13 -328 24 -543 32 -625 9 -102 14 -167 20
-255 3 -47 8 -107 10 -135 3 -27 7 -77 10 -110 3 -33 10 -91 15 -130 5 -38 12
-99 15 -135 4 -36 8 -76 10 -90 3 -14 7 -54 10 -90 3 -36 7 -74 9 -85 2 -11 7
-45 11 -75 3 -30 8 -66 10 -80 2 -14 6 -43 9 -65 9 -61 25 -176 31 -217 3 -21
7 -55 10 -75 3 -21 15 -92 26 -158 12 -66 23 -133 25 -150 3 -16 9 -52 14 -80
5 -27 11 -61 14 -75 2 -14 7 -41 10 -60 3 -19 8 -46 10 -60 2 -14 13 -70 25
-125 11 -55 23 -116 26 -135 3 -19 8 -43 11 -52 3 -9 7 -27 9 -40 3 -13 7 -34
10 -48 3 -14 7 -36 10 -50 12 -64 33 -157 91 -405 3 -11 7 -31 10 -45 8 -42
73 -300 95 -380 11 -41 22 -82 24 -90 56 -228 213 -754 336 -1123 77 -231 124
-365 209 -592 10 -27 31 -84 45 -125 15 -41 33 -88 41 -105 7 -16 54 -133 104
-260 51 -126 105 -258 121 -293 16 -35 29 -65 29 -67 0 -3 13 -33 29 -67 15
-35 50 -112 76 -173 26 -60 72 -162 102 -225 30 -63 75 -160 101 -215 48 -105
293 -590 357 -710 21 -38 65 -119 98 -180 33 -60 73 -135 90 -165 42 -78 96
-172 204 -353 51 -87 93 -160 93 -163 0 -3 8 -17 19 -32 10 -15 87 -137 171
-272 139 -223 526 -806 550 -830 8 -8 161 -220 194 -270 16 -25 32 -47 35 -50
4 -3 46 -59 96 -125 49 -66 92 -122 95 -125 3 -3 42 -53 86 -111 67 -90 437
-552 469 -585 17 -19 118 -134 225 -259 93 -109 205 -233 299 -334 20 -21 79
-85 131 -142 169 -185 794 -805 971 -964 31 -27 96 -86 145 -131 120 -109 203
-183 245 -218 19 -16 50 -43 69 -60 20 -17 60 -51 90 -76 29 -25 88 -74 129
-110 90 -77 540 -437 626 -501 33 -24 64 -48 70 -52 182 -144 752 -547 794
-563 41 -14 85 -9 125 14 27 16 120 147 520 737 71 105 164 240 205 300 92
134 180 263 310 455 54 80 132 195 174 255 42 61 128 187 191 280 64 94 168
247 231 340 64 94 155 226 201 295 47 69 150 220 229 335 79 116 183 268 230
338 48 71 189 278 314 460 393 576 365 531 365 586 0 78 -17 96 -241 251 -184
128 -542 399 -678 512 -11 10 -49 40 -85 68 -36 29 -81 66 -100 83 -19 18 -60
52 -90 77 -30 25 -62 52 -70 60 -9 8 -45 40 -79 70 -70 61 -75 66 -186 165
-253 227 -652 630 -915 925 -41 46 -82 91 -90 100 -8 9 -40 45 -70 81 -68 79
-102 118 -115 133 -6 6 -39 47 -75 91 -35 44 -67 82 -70 85 -10 9 -203 256
-298 382 -249 329 -552 777 -762 1128 -67 113 -219 376 -259 450 -28 52 -58
106 -66 120 -65 110 -359 714 -450 925 -98 226 -90 206 -186 450 -76 192 -109
276 -151 395 -11 30 -24 64 -28 75 -27 62 -188 574 -244 775 -37 129 -73 258
-81 285 -15 53 -114 472 -121 515 -3 14 -7 33 -10 42 -3 10 -7 30 -10 45 -3
16 -20 105 -39 198 -19 94 -43 228 -55 299 -12 72 -23 132 -24 135 -2 3 -7 30
-10 60 -4 29 -11 83 -16 120 -5 36 -12 84 -15 106 -3 22 -8 54 -10 70 -3 17
-7 55 -11 85 -3 30 -7 66 -9 80 -3 14 -9 72 -15 130 -6 58 -13 123 -15 145 -2
22 -7 69 -10 105 -3 36 -8 81 -10 100 -2 19 -7 80 -10 135 -3 55 -8 123 -10
150 -26 322 -26 1332 0 1606 2 24 7 89 10 144 3 55 8 118 10 140 2 22 7 72 10
110 3 39 7 86 10 105 2 19 7 62 10 95 9 90 15 146 20 185 3 19 7 58 11 85 3
28 9 77 14 110 5 33 12 83 15 110 6 50 11 82 19 120 2 11 7 43 10 70 14 97 34
211 67 380 11 55 22 114 25 130 4 26 89 416 99 455 2 8 15 65 30 125 14 61 34
139 44 175 10 36 31 110 46 165 34 126 76 271 117 400 18 55 33 102 33 105 1
3 17 55 37 115 261 788 576 1506 1000 2275 34 61 84 149 185 320 24 41 49 84
56 94 203 326 408 637 550 833 139 193 170 234 231 313 36 47 76 98 88 115 23
29 168 212 199 250 25 29 148 176 172 205 53 63 142 165 147 170 3 3 25 28 49
55 247 279 717 751 1025 1030 53 48 263 231 311 270 33 27 66 56 74 63 74 71
679 536 810 624 14 9 69 47 121 84 184 128 596 395 723 468 17 10 68 40 112
66 185 111 498 280 765 413 241 121 378 185 695 327 71 32 407 167 530 213
123 47 137 52 310 113 105 37 389 132 415 139 8 2 89 26 180 53 141 43 233 69
300 87 8 2 59 15 113 30 54 15 107 28 118 31 27 6 40 9 159 39 58 14 116 28
130 31 14 2 86 18 160 34 184 40 507 102 602 115 24 3 57 8 73 12 17 3 39 7
50 9 11 1 34 5 50 8 28 5 374 51 460 61 119 14 207 23 280 30 33 3 83 7 110
10 80 7 163 14 265 20 52 3 118 8 145 10 121 9 493 18 755 18 374 1 712 -12
1035 -39 33 -3 80 -7 105 -9 151 -11 300 -28 555 -60 66 -8 131 -17 145 -19
14 -2 43 -7 65 -10 60 -8 117 -17 145 -22 14 -2 68 -11 120 -19 118 -19 124
-20 290 -51 74 -14 146 -28 160 -30 14 -3 50 -11 80 -19 30 -7 69 -16 85 -19
142 -23 661 -156 960 -246 39 -11 94 -27 124 -35 29 -9 57 -18 62 -21 5 -3 17
-7 26 -9 100 -21 689 -233 998 -359 428 -175 1061 -478 1410 -676 58 -33 112
-63 175 -98 25 -14 63 -37 85 -51 22 -15 48 -30 58 -34 62 -24 831 -524 952
-619 6 -4 102 -76 215 -160 113 -83 259 -195 325 -247 156 -125 148 -118 311
-256 82 -69 377 -329 412 -363 16 -15 62 -58 103 -96 230 -214 561 -553 779
-796 41 -47 93 -105 116 -130 120 -133 380 -451 570 -696 261 -337 636 -894
868 -1289 26 -44 51 -87 57 -95 104 -167 398 -733 546 -1050 76 -162 246 -555
277 -639 8 -20 40 -101 71 -181 182 -468 375 -1080 495 -1575 34 -140 109
-474 116 -515 2 -14 6 -34 9 -46 3 -12 7 -39 10 -60 4 -21 8 -47 11 -56 3 -10
7 -30 10 -45 2 -16 8 -48 14 -73 5 -25 14 -79 20 -120 7 -41 16 -95 20 -120 5
-25 14 -81 20 -125 7 -44 14 -96 16 -115 3 -19 9 -62 14 -95 5 -33 12 -85 15
-115 6 -55 11 -104 20 -170 8 -60 17 -151 31 -310 3 -41 7 -82 9 -90 2 -8 6
-71 10 -139 4 -68 8 -135 10 -150 26 -210 26 -1265 0 -1611 -3 -36 -7 -94 -10
-130 -21 -282 -21 -287 -41 -460 -3 -30 -7 -72 -9 -92 -2 -21 -6 -61 -10 -90
-4 -29 -9 -64 -10 -78 -1 -14 -5 -43 -8 -65 -4 -22 -9 -60 -12 -85 -3 -25 -8
-56 -10 -70 -4 -25 -13 -87 -21 -144 -2 -15 -5 -35 -8 -45 -3 -9 -8 -36 -11
-61 -5 -40 -26 -164 -41 -245 -23 -130 -98 -493 -115 -559 -12 -44 -23 -92
-25 -106 -6 -33 -45 -189 -79 -315 -14 -55 -28 -107 -30 -116 -8 -40 -145
-501 -155 -524 -5 -11 -29 -84 -54 -161 -68 -213 -267 -750 -326 -879 -5 -11
-28 -65 -51 -120 -22 -55 -54 -128 -70 -163 -16 -35 -29 -65 -29 -67 0 -4 -48
-107 -140 -300 -154 -325 -332 -658 -540 -1015 -71 -121 -378 -610 -389 -620
-3 -3 -28 -39 -56 -80 -156 -236 -441 -620 -655 -884 -109 -134 -396 -473
-429 -507 -9 -9 -56 -60 -106 -115 -150 -165 -499 -520 -671 -681 -144 -134
-373 -340 -455 -408 -13 -11 -67 -57 -119 -101 -244 -207 -589 -472 -880 -676
-216 -152 -232 -170 -224 -253 3 -38 57 -124 271 -435 123 -179 510 -746 555
-814 26 -39 56 -82 67 -96 12 -14 21 -30 21 -37 0 -6 4 -13 8 -15 4 -1 55 -73
113 -158 58 -85 139 -204 181 -265 41 -60 173 -254 292 -430 120 -176 234
-342 253 -370 19 -27 78 -115 131 -194 54 -79 102 -149 108 -155 5 -6 13 -18
17 -26 4 -8 67 -103 141 -210 74 -107 207 -301 295 -430 88 -129 201 -296 252
-370 50 -74 119 -175 153 -225 79 -117 95 -134 141 -149 50 -17 90 -11 140 21
168 109 931 668 983 720 8 7 30 26 50 41 21 15 120 94 222 176 170 137 233
190 390 326 30 27 69 59 85 71 17 13 32 26 35 29 3 4 34 32 70 65 36 32 105
94 155 139 49 45 114 104 144 131 161 145 779 756 926 915 86 93 268 291 280
304 6 6 30 34 55 62 46 50 57 64 165 189 33 39 64 75 70 81 5 6 29 33 52 60
23 27 51 60 63 74 66 77 94 111 141 170 29 36 98 121 154 190 56 69 153 193
215 275 63 83 118 155 122 160 143 183 389 531 612 866 116 174 232 350 257
390 25 41 68 109 95 151 27 43 54 86 59 95 13 23 113 193 125 213 72 116 215
368 305 535 21 39 60 111 88 160 51 91 364 712 404 801 12 27 52 112 88 189
37 77 78 167 92 200 14 33 34 80 45 105 11 25 26 59 33 75 7 17 27 60 43 96
16 36 71 169 121 295 51 126 98 243 105 259 7 17 23 57 36 90 12 33 26 69 30
80 71 167 396 1130 425 1255 1 8 21 76 44 150 38 128 127 449 137 497 2 12 9
34 14 48 5 14 7 25 5 25 -2 0 0 12 6 28 6 15 31 113 55 217 25 105 46 197 49
205 29 116 165 778 181 885 8 59 16 102 19 115 3 8 7 33 10 55 4 22 15 90 25
150 27 157 28 165 35 220 3 28 7 59 9 71 2 12 7 45 11 74 4 29 8 60 10 69 1 9
6 41 10 71 3 30 8 66 10 80 9 61 16 123 30 255 3 28 7 66 10 85 2 19 7 58 9
85 3 28 10 88 16 135 5 47 12 121 15 165 3 44 8 100 10 124 3 24 7 85 10 135
4 50 8 109 10 131 2 22 6 92 10 155 3 63 7 147 10 185 31 518 26 1538 -9 2050
-7 102 -16 233 -21 310 -2 33 -6 85 -9 115 -11 110 -16 166 -21 235 -3 39 -7
88 -10 110 -3 22 -7 60 -9 85 -9 77 -27 234 -31 265 -2 17 -7 57 -10 90 -3 33
-8 71 -10 85 -3 14 -14 90 -25 170 -28 215 -116 755 -124 769 -2 3 -7 28 -10
54 -4 26 -11 69 -16 95 -6 26 -13 61 -16 77 -19 97 -46 231 -48 240 -2 6 -6
28 -10 50 -4 22 -12 54 -16 70 -5 17 -11 44 -14 60 -2 17 -9 53 -16 80 -6 28
-14 61 -16 75 -3 14 -10 43 -16 65 -5 22 -12 47 -13 55 -19 86 -110 443 -160
630 -193 708 -440 1438 -705 2085 -34 83 -68 167 -75 187 -8 21 -28 67 -44
103 -17 37 -31 68 -31 70 0 3 -11 28 -24 57 -13 29 -49 109 -79 178 -30 69
-80 179 -112 245 -31 66 -70 149 -87 185 -51 108 -241 488 -300 600 -31 58
-76 143 -101 190 -275 522 -740 1278 -1122 1825 -84 120 -343 480 -368 510 -6
8 -139 181 -218 285 -30 39 -153 194 -167 210 -6 8 -54 67 -106 132 -108 133
-366 438 -435 514 -25 28 -75 84 -111 125 -433 493 -1101 1152 -1685 1661
-316 275 -884 729 -1181 943 -53 39 -131 95 -173 126 -42 30 -152 108 -246
173 -93 64 -178 123 -188 131 -9 8 -20 15 -22 15 -3 0 -85 53 -183 118 -154
103 -303 199 -416 267 -193 117 -306 186 -333 201 -18 11 -69 41 -115 68 -157
93 -417 237 -668 370 -123 66 -692 349 -800 398 -30 14 -91 42 -135 63 -102
47 -554 245 -561 245 -3 0 -24 9 -47 19 -62 28 -369 151 -542 216 -442 167
-1009 357 -1360 455 -16 5 -111 32 -210 60 -186 53 -713 187 -845 215 -41 9
-82 18 -90 20 -302 68 -789 165 -915 181 -22 3 -60 9 -85 14 -25 5 -74 13
-110 19 -58 9 -126 21 -155 26 -10 2 -83 12 -160 21 -22 3 -64 9 -94 15 -30 5
-56 7 -58 5 -3 -2 -18 0 -34 4 -16 5 -60 12 -97 15 -37 3 -78 8 -92 10 -36 6
-95 13 -170 20 -36 3 -72 8 -80 10 -8 2 -46 6 -85 10 -202 19 -251 23 -330 30
-38 3 -94 8 -123 11 -29 3 -86 7 -125 10 -160 9 -236 14 -307 19 -78 6 -149 9
-491 20 -182 6 -787 13 -792 9z"/>
<path d="M18799 29476 c-2 -2 -74 -6 -159 -10 -85 -4 -184 -9 -220 -11 -123
-8 -225 -16 -255 -20 -16 -2 -64 -7 -105 -10 -97 -8 -388 -42 -510 -60 -52 -8
-115 -16 -140 -19 -25 -3 -54 -7 -65 -10 -22 -4 -79 -13 -140 -22 -88 -12
-597 -117 -734 -150 -80 -19 -153 -37 -161 -39 -59 -13 -292 -75 -299 -79 -4
-3 -18 -7 -32 -10 -147 -30 -979 -309 -1136 -381 -17 -8 -34 -15 -37 -15 -3 0
-28 -9 -54 -21 -26 -12 -56 -25 -67 -29 -75 -30 -283 -119 -345 -147 -41 -19
-115 -53 -165 -76 -141 -64 -578 -287 -705 -359 -63 -36 -135 -76 -160 -90
-355 -198 -833 -512 -1219 -802 -95 -72 -185 -140 -200 -151 -78 -58 -421
-341 -497 -410 -6 -5 -44 -39 -84 -75 -278 -246 -605 -568 -870 -856 -48 -53
-107 -118 -216 -243 -60 -69 -209 -246 -269 -321 -33 -41 -65 -81 -72 -88 -20
-21 -357 -472 -412 -552 -166 -238 -341 -511 -521 -810 -23 -38 -116 -200
-138 -240 -13 -25 -32 -58 -42 -75 -69 -119 -400 -781 -400 -801 0 -1 -13 -31
-29 -66 -16 -35 -48 -108 -71 -163 -23 -55 -50 -118 -60 -140 -9 -22 -47 -119
-84 -215 -37 -96 -72 -184 -77 -195 -10 -24 -129 -363 -134 -385 -2 -8 -19
-62 -38 -120 -19 -58 -44 -139 -56 -180 -12 -41 -26 -86 -31 -100 -15 -42
-128 -465 -144 -540 -3 -14 -31 -137 -61 -275 -30 -137 -57 -263 -59 -280 -3
-16 -21 -118 -40 -225 -18 -107 -36 -217 -39 -245 -4 -27 -8 -59 -10 -70 -3
-11 -8 -49 -12 -85 -4 -36 -8 -67 -10 -70 -2 -3 -6 -34 -9 -70 -4 -36 -8 -75
-10 -85 -2 -11 -7 -54 -11 -95 -3 -41 -8 -86 -10 -100 -2 -14 -7 -63 -10 -108
-4 -46 -8 -91 -10 -100 -1 -10 -6 -78 -10 -152 -4 -74 -9 -142 -10 -151 -7
-33 -18 -472 -18 -674 0 -176 9 -523 18 -680 3 -70 17 -259 20 -295 2 -19 6
-73 10 -120 3 -47 8 -92 10 -100 2 -8 7 -49 10 -90 3 -41 8 -86 10 -100 4 -23
15 -110 20 -155 4 -41 18 -141 22 -160 2 -11 8 -56 14 -99 5 -44 12 -82 13
-85 2 -3 7 -26 10 -51 3 -25 8 -54 10 -65 2 -11 9 -54 16 -95 6 -41 15 -91 20
-110 5 -19 11 -52 14 -73 4 -22 13 -69 21 -105 8 -37 16 -78 19 -92 15 -91
116 -501 172 -705 92 -331 285 -916 359 -1090 7 -16 45 -109 83 -205 151 -375
378 -858 554 -1180 14 -25 44 -81 68 -125 24 -44 51 -92 62 -107 10 -14 18
-29 18 -32 0 -4 11 -23 24 -44 13 -20 57 -92 97 -160 41 -68 83 -138 94 -156
11 -18 33 -54 50 -82 38 -63 335 -507 344 -514 4 -3 40 -52 81 -110 41 -58 90
-126 109 -151 20 -25 47 -61 61 -79 124 -168 468 -582 639 -769 256 -280 626
-652 817 -820 22 -19 59 -53 84 -75 25 -23 72 -64 105 -92 33 -29 94 -81 135
-116 144 -123 391 -318 572 -452 384 -283 419 -306 469 -306 42 0 96 22 116
49 20 25 269 387 479 696 53 77 125 183 161 235 36 52 107 156 157 230 51 74
137 200 191 280 89 130 151 221 188 273 6 10 56 82 109 160 53 78 123 180 155
226 32 46 65 94 73 107 18 28 173 255 228 334 21 30 87 127 147 215 60 88 123
180 140 205 17 25 76 110 130 190 55 80 130 190 168 245 37 55 111 163 163
240 96 140 174 254 315 460 320 465 528 774 535 795 29 85 0 142 -111 218
-102 69 -333 247 -420 324 -11 10 -31 27 -45 39 -143 118 -355 330 -569 568
-13 14 -74 89 -136 166 -371 463 -642 931 -868 1495 -54 135 -139 382 -152
440 -2 8 -15 56 -30 105 -41 144 -65 240 -85 345 -5 25 -12 56 -15 70 -12 54
-63 368 -69 425 -4 33 -8 79 -11 103 -12 102 -14 125 -21 238 -14 214 -8 704
11 854 2 19 6 62 9 95 3 33 8 76 11 95 7 56 14 112 20 160 3 25 10 68 15 95 5
28 12 66 15 85 58 352 213 866 375 1242 31 70 218 451 243 493 7 11 27 47 46
80 85 150 218 355 329 509 101 140 200 263 357 446 111 129 380 395 510 505
32 28 63 55 69 61 70 68 427 334 576 428 41 27 86 56 100 65 95 67 444 253
663 355 289 135 794 306 1059 360 13 3 64 14 113 25 50 11 110 22 135 26 25 3
52 8 60 10 8 2 31 7 50 10 19 3 46 7 60 10 14 2 45 7 70 10 25 4 56 8 70 10
14 2 50 6 80 10 30 3 69 7 85 10 17 2 80 7 140 10 61 4 128 9 150 11 102 9
580 3 715 -10 36 -3 92 -8 125 -11 63 -5 342 -41 385 -50 27 -5 115 -21 170
-30 63 -11 333 -75 440 -106 238 -68 480 -154 716 -254 104 -45 456 -217 478
-234 6 -5 32 -20 59 -35 117 -65 150 -84 272 -162 72 -46 135 -87 140 -91 6
-5 57 -42 115 -83 638 -452 1208 -1078 1608 -1766 327 -562 572 -1216 677
-1805 8 -46 17 -94 19 -105 10 -50 20 -110 30 -194 4 -30 9 -68 11 -85 2 -16
7 -61 10 -100 4 -38 8 -83 10 -100 33 -245 21 -900 -21 -1185 -3 -19 -7 -51
-9 -70 -6 -44 -26 -179 -31 -205 -2 -11 -7 -36 -10 -55 -3 -19 -17 -87 -30
-150 -69 -321 -151 -600 -262 -885 -48 -123 -68 -171 -130 -310 -43 -97 -174
-352 -232 -455 -60 -104 -60 -104 -108 -182 -387 -629 -910 -1189 -1531 -1638
-118 -85 -141 -106 -155 -141 -32 -81 -38 -70 297 -559 47 -69 124 -181 171
-250 121 -178 293 -430 311 -454 8 -12 25 -37 38 -56 35 -52 198 -291 335
-490 66 -96 148 -215 181 -265 34 -49 101 -147 149 -217 48 -70 155 -227 237
-348 83 -122 156 -229 162 -238 7 -9 33 -46 57 -82 137 -200 213 -311 311
-455 61 -88 130 -190 155 -226 80 -117 203 -298 368 -539 88 -129 184 -269
212 -310 125 -183 329 -480 346 -504 25 -34 73 -56 122 -56 44 0 58 8 327 199
78 56 348 258 370 278 11 10 74 61 140 113 65 52 155 126 200 163 44 38 89 77
100 86 30 25 187 164 206 181 8 8 67 62 129 120 137 126 478 467 610 610 52
57 100 108 105 114 15 16 150 170 214 245 153 176 457 562 579 732 29 41 73
102 98 137 190 265 474 713 639 1007 147 264 284 528 399 772 107 229 111 237
195 438 40 94 76 178 81 187 6 10 10 23 10 30 0 7 6 25 14 40 8 15 40 96 71
180 31 84 69 187 85 228 39 105 151 450 195 600 37 125 44 153 85 305 11 44
30 113 41 154 12 41 23 83 25 95 6 35 11 57 34 151 12 50 24 101 26 115 3 14
18 87 34 162 25 115 67 345 86 463 2 17 7 42 10 57 3 15 7 42 9 60 3 18 9 67
15 108 16 105 18 118 25 180 4 30 9 63 10 72 2 9 6 48 10 85 3 37 10 102 15
143 9 71 12 104 25 260 18 230 21 286 31 515 12 311 7 913 -11 1130 -3 33 -7
101 -10 150 -3 50 -7 110 -10 135 -2 25 -6 81 -9 125 -4 44 -9 96 -11 115 -3
19 -7 56 -10 83 -13 115 -15 140 -21 185 -3 26 -7 58 -9 72 -2 14 -9 61 -15
106 -6 44 -12 89 -14 100 -2 10 -7 42 -10 69 -4 28 -13 86 -21 130 -8 44 -17
96 -20 115 -5 32 -28 156 -39 205 -2 11 -7 40 -12 65 -4 25 -8 47 -9 50 -1 3
-7 32 -14 65 -29 136 -62 283 -76 335 -8 30 -16 66 -19 80 -7 42 -65 254 -123
455 -132 459 -355 1073 -524 1443 -16 35 -29 65 -29 68 0 2 -16 39 -36 81 -20
43 -49 105 -64 138 -83 178 -298 599 -347 677 -13 21 -23 40 -23 42 0 3 -45
83 -101 178 -56 95 -109 187 -119 203 -108 187 -395 615 -582 870 -169 230
-478 622 -517 655 -3 3 -28 32 -55 65 -28 33 -57 67 -65 76 -9 9 -43 47 -76
85 -258 294 -669 706 -985 984 -40 36 -83 74 -96 85 -12 11 -43 38 -70 60 -27
22 -69 58 -94 80 -25 22 -63 54 -84 70 -21 17 -44 35 -50 40 -41 38 -324 256
-473 365 -98 71 -182 134 -188 138 -27 20 -262 178 -388 260 -143 94 -515 320
-617 375 -30 16 -73 40 -95 53 -287 166 -909 462 -1305 619 -80 31 -176 70
-215 85 -411 165 -1355 443 -1715 506 -14 2 -54 11 -90 19 -80 18 -275 55
-314 61 -15 2 -35 6 -45 8 -9 3 -38 8 -65 11 -27 3 -51 7 -55 9 -3 2 -28 7
-56 10 -27 3 -61 8 -75 10 -26 4 -114 18 -140 21 -8 1 -58 7 -110 14 -52 7
-108 14 -125 16 -16 2 -57 7 -90 10 -33 4 -71 8 -84 10 -13 2 -63 7 -110 10
-47 4 -97 8 -111 10 -30 5 -180 16 -420 31 -80 5 -1006 14 -1011 10z"/>
<path d="M19124 15191 c-21 -13 -100 -120 -231 -313 -111 -161 -248 -363 -306
-448 -58 -85 -153 -225 -211 -310 -57 -85 -137 -202 -177 -260 -39 -58 -130
-190 -201 -295 -70 -104 -141 -208 -156 -230 -15 -22 -79 -116 -142 -210 -63
-93 -118 -174 -123 -180 -4 -5 -38 -55 -75 -110 -38 -55 -111 -163 -163 -240
-92 -135 -161 -236 -367 -540 -52 -77 -118 -174 -147 -215 -46 -67 -222 -326
-493 -725 -53 -77 -128 -187 -167 -245 -138 -203 -226 -332 -372 -548 -82
-119 -168 -247 -193 -283 -25 -36 -103 -151 -173 -255 -71 -104 -167 -245
-214 -314 -47 -69 -147 -215 -221 -325 -156 -230 -175 -258 -182 -265 -3 -3
-9 -13 -15 -22 -9 -15 -189 -281 -305 -452 -81 -117 -255 -372 -366 -536 -65
-96 -155 -229 -200 -295 -46 -66 -150 -219 -232 -340 -81 -121 -294 -434 -472
-695 -178 -261 -359 -527 -401 -590 -43 -63 -82 -119 -86 -125 -5 -5 -40 -57
-79 -115 -75 -112 -200 -295 -319 -470 -39 -58 -114 -168 -167 -245 -302 -446
-450 -662 -517 -760 -41 -60 -135 -198 -207 -305 -302 -444 -349 -514 -483
-710 -77 -113 -184 -270 -238 -350 -54 -80 -149 -219 -211 -310 -63 -92 -115
-180 -118 -198 -14 -73 35 -151 106 -169 21 -5 3599 -9 8715 -8 8140 1 8682 2
8712 18 67 36 97 109 73 176 -7 20 -61 106 -119 191 -58 85 -169 250 -248 365
-78 116 -146 215 -150 220 -4 6 -20 28 -35 50 -14 22 -109 162 -210 310 -101
149 -247 362 -323 475 -77 113 -181 266 -232 340 -50 74 -134 198 -187 275
-254 376 -318 469 -397 585 -47 69 -162 238 -256 375 -93 138 -216 319 -274
403 -57 84 -108 160 -114 169 -5 9 -18 26 -27 37 -10 11 -18 25 -18 32 0 7 -4
14 -8 16 -6 2 -176 250 -506 738 -28 41 -54 79 -59 85 -10 14 -60 87 -180 265
-58 85 -156 229 -218 320 -62 91 -156 230 -211 310 -54 80 -105 154 -113 165
-14 20 -73 107 -281 415 -58 85 -147 216 -197 290 -51 74 -149 218 -219 320
-69 102 -163 239 -208 305 -45 66 -133 197 -196 290 -64 94 -194 285 -289 425
-96 140 -217 318 -269 395 -52 77 -136 201 -187 275 -51 74 -149 218 -218 320
-69 102 -171 253 -228 335 -56 83 -144 213 -197 290 -52 77 -200 294 -328 482
-128 189 -271 400 -318 469 -47 69 -89 132 -95 138 -5 7 -14 19 -20 29 -5 9
-74 110 -152 224 -78 114 -183 269 -234 343 -50 74 -136 200 -190 280 -54 80
-161 237 -238 350 -77 113 -219 322 -316 465 -480 706 -447 665 -534 665 -28
0 -59 -8 -77 -19z"/>
</g>
</svg>
